<svg width="22" height="29" viewBox="0 0 22 29" fill="none" xmlns="http://www.w3.org/2000/svg">
<path d="M3.3 16.4C3.7 16.6 4 16.4 4.1 16C4.2 15.7 4.4 15 4.4 14.7C4.5 14.3 4.5 14.2 4.2 13.8C3.5 13 3.1 12 3.1 10.6C3.1 6.5 6.2 2.9 11.1 2.9C15.4 2.9 17.8 5.6 17.8 9.1C17.8 13.8 15.7 17.7 12.7 17.7C11 17.7 9.7 16.3 10.1 14.6C10.6 12.6 11.5 10.3 11.5 8.9C11.5 7.6 10.8 6.5 9.3 6.5C7.6 6.5 6.2 8.3 6.2 10.7C6.3 12.1 6.8 13.1 6.8 13.1C6.8 13.1 5 20.6 4.7 21.9C4.1 24.5 4.6 27.7 4.7 28C4.7 28.2 5 28.2 5.1 28.1C5.3 27.9 7.3 25.3 8 22.8C8.2 22.1 9.1 18.4 9.1 18.4C9.7 19.5 11.3 20.4 13.1 20.4C18.3 20.4 21.8 15.7 21.8 9.3C21.8 4.5 17.7 0 11.6 0C3.9 0.1 0 5.6 0 10.2C0 13 1.1 15.5 3.3 16.4Z" fill="#999999"/>
</svg>
