<svg width="19" height="15" viewBox="0 0 19 15" fill="none" xmlns="http://www.w3.org/2000/svg">
<path d="M18.9277 1.79743C18.3235 2.05862 17.6595 2.21783 17.0081 2.32307C17.3176 2.27291 17.7733 1.73635 17.9559 1.51933C18.2336 1.18834 18.4651 0.810998 18.5948 0.403673C18.6113 0.372047 18.6239 0.33226 18.5903 0.307723C18.5493 0.29191 18.522 0.300084 18.489 0.316442C17.7619 0.68996 17.0092 0.960976 16.2093 1.15237C16.1427 1.16818 16.0933 1.15237 16.0523 1.11256C15.9857 1.04059 15.9231 0.972955 15.8526 0.917337C15.5158 0.64306 15.1551 0.428239 14.7483 0.269017C14.2146 0.0601739 13.6298 -0.0281638 13.0546 0.0078248C12.4948 0.0427228 11.9446 0.194297 11.4474 0.442945C10.9495 0.692138 10.5052 1.03949 10.1519 1.45773C9.78494 1.89068 9.51527 2.40161 9.37759 2.94417C9.24446 3.46709 9.25527 3.98399 9.33663 4.51292C9.34858 4.60071 9.34118 4.61271 9.25754 4.60071C6.12671 4.15413 3.53124 3.07994 1.42392 0.778853C1.33232 0.679067 1.28282 0.679041 1.20772 0.787007C0.285484 2.1115 0.733234 4.23919 1.88475 5.28504C2.03836 5.42464 2.19597 5.56423 2.36665 5.69128C2.30463 5.70327 1.5377 5.62366 0.854987 5.28504C0.763389 5.22943 0.717885 5.26161 0.709351 5.36139C0.700817 5.50426 0.713333 5.63619 0.733815 5.79105C0.911321 7.13408 1.88135 8.3757 3.21037 8.86046C3.3674 8.92371 3.54206 8.97988 3.71274 9.00769C3.4095 9.07149 3.09828 9.11675 2.23009 9.05186C2.12199 9.03168 2.08048 9.08402 2.12201 9.18272C2.774 10.8873 4.18267 11.3944 5.23747 11.6828C5.37856 11.7068 5.52022 11.7068 5.66132 11.7385C5.65279 11.7505 5.64482 11.7504 5.63628 11.763C5.28696 12.2739 4.07344 12.6545 3.50906 12.8432C2.48214 13.1873 1.36361 13.3421 0.278086 13.2396C0.103993 13.2151 0.0681528 13.2173 0.0209315 13.2396C-0.0268588 13.268 0.0146764 13.3078 0.0704317 13.3508C0.291177 13.4904 0.515344 13.6137 0.743486 13.7331C1.4336 14.0837 2.15216 14.3618 2.90372 14.5614C6.78497 15.5887 11.1572 14.834 14.0713 12.0585C16.3595 9.87904 17.1623 6.87399 17.1623 3.86513C17.1623 3.7468 17.3074 3.68191 17.3938 3.61975C17.9889 3.19116 18.4623 2.67806 18.906 2.10551C19.0062 1.97683 18.9999 1.86233 18.9999 1.81543C18.9999 1.80671 18.9999 1.79959 18.9999 1.79959C18.9988 1.74997 19.0045 1.76417 18.9277 1.79743Z" fill="#747474"/>
</svg>
