<svg width="271" height="33" viewBox="0 0 271 33" fill="none" xmlns="http://www.w3.org/2000/svg">
<path d="M25.956 4.2L15.586 28H11.234L0.83 4.2H5.624L13.546 22.56L21.536 4.2H25.956ZM45.0398 9.844V28H40.9938V25.688C40.3138 26.504 39.4638 27.1387 38.4438 27.592C37.4238 28.0227 36.3245 28.238 35.1458 28.238C32.7205 28.238 30.8052 27.5693 29.3998 26.232C28.0172 24.872 27.3258 22.866 27.3258 20.214V9.844H31.5758V19.636C31.5758 21.268 31.9385 22.492 32.6638 23.308C33.4118 24.1013 34.4658 24.498 35.8258 24.498C37.3445 24.498 38.5458 24.0333 39.4298 23.104C40.3365 22.152 40.7898 20.792 40.7898 19.024V9.844H45.0398ZM57.5404 9.64C60.2151 9.64 62.2551 10.286 63.6604 11.578C65.0884 12.8473 65.8024 14.774 65.8024 17.358V28H61.7904V25.79C61.2691 26.5833 60.5211 27.1953 59.5464 27.626C58.5944 28.034 57.4384 28.238 56.0784 28.238C54.7184 28.238 53.5284 28.0113 52.5084 27.558C51.4884 27.082 50.6951 26.436 50.1284 25.62C49.5844 24.7813 49.3124 23.8407 49.3124 22.798C49.3124 21.166 49.9131 19.8627 51.1144 18.888C52.3384 17.8907 54.2537 17.392 56.8604 17.392H61.5524V17.12C61.5524 15.8507 61.1671 14.876 60.3964 14.196C59.6484 13.516 58.5264 13.176 57.0304 13.176C56.0104 13.176 55.0017 13.3347 54.0044 13.652C53.0297 13.9693 52.2024 14.4113 51.5224 14.978L49.8564 11.884C50.8084 11.1587 51.9531 10.6033 53.2904 10.218C54.6277 9.83267 56.0444 9.64 57.5404 9.64ZM56.9624 25.144C58.0277 25.144 58.9684 24.906 59.7844 24.43C60.6231 23.9313 61.2124 23.2287 61.5524 22.322V20.214H57.1664C54.7184 20.214 53.4944 21.0187 53.4944 22.628C53.4944 23.3987 53.8004 24.0107 54.4124 24.464C55.0244 24.9173 55.8744 25.144 56.9624 25.144Z" fill="#A6DF58"/>
<path d="M88.6648 21.268C88.6648 23.104 87.9848 24.668 86.6248 25.96C85.2874 27.2293 83.3381 28 80.7768 28.272V32.08H77.9888V28.306C76.3114 28.1927 74.7248 27.8867 73.2288 27.388C71.7328 26.8893 70.5428 26.2547 69.6588 25.484L71.1888 22.05C72.0274 22.73 73.0474 23.308 74.2488 23.784C75.4501 24.2373 76.6968 24.5207 77.9888 24.634V17.834C76.3794 17.4487 75.0308 17.0293 73.9428 16.576C72.8774 16.1 71.9821 15.42 71.2568 14.536C70.5314 13.6293 70.1688 12.4393 70.1688 10.966C70.1688 9.13 70.8374 7.566 72.1748 6.274C73.5121 4.982 75.4501 4.21133 77.9888 3.962V0.119998H80.7768V3.894C82.0461 3.962 83.2814 4.17733 84.4828 4.54C85.7068 4.90267 86.7721 5.37867 87.6787 5.968L86.2848 9.402C84.5621 8.40467 82.7261 7.79267 80.7768 7.566V14.434C82.4088 14.8193 83.7574 15.2387 84.8228 15.692C85.9108 16.1453 86.8174 16.8253 87.5428 17.732C88.2908 18.616 88.6648 19.7947 88.6648 21.268ZM74.5548 10.762C74.5548 11.51 74.8494 12.1107 75.4388 12.564C76.0281 13.0173 76.8781 13.4027 77.9888 13.72V7.668C76.8328 7.84933 75.9714 8.212 75.4048 8.756C74.8381 9.3 74.5548 9.96867 74.5548 10.762ZM80.7768 24.566C81.9781 24.3847 82.8621 24.0333 83.4288 23.512C84.0181 22.9907 84.3128 22.3447 84.3128 21.574C84.3128 20.8033 84.0068 20.1913 83.3948 19.738C82.7828 19.262 81.9101 18.8653 80.7768 18.548V24.566ZM100.8 28.238C98.9636 28.238 97.3089 27.8413 95.8356 27.048C94.3622 26.2547 93.2062 25.1553 92.3676 23.75C91.5516 22.322 91.1436 20.7127 91.1436 18.922C91.1436 17.1313 91.5516 15.5333 92.3676 14.128C93.2062 12.7227 94.3622 11.6233 95.8356 10.83C97.3089 10.0367 98.9636 9.64 100.8 9.64C102.658 9.64 104.324 10.0367 105.798 10.83C107.271 11.6233 108.416 12.7227 109.232 14.128C110.07 15.5333 110.49 17.1313 110.49 18.922C110.49 20.7127 110.07 22.322 109.232 23.75C108.416 25.1553 107.271 26.2547 105.798 27.048C104.324 27.8413 102.658 28.238 100.8 28.238ZM100.8 24.6C102.364 24.6 103.656 24.0787 104.676 23.036C105.696 21.9933 106.206 20.622 106.206 18.922C106.206 17.222 105.696 15.8507 104.676 14.808C103.656 13.7653 102.364 13.244 100.8 13.244C99.2356 13.244 97.9436 13.7653 96.9236 14.808C95.9262 15.8507 95.4276 17.222 95.4276 18.922C95.4276 20.622 95.9262 21.9933 96.9236 23.036C97.9436 24.0787 99.2356 24.6 100.8 24.6ZM114.554 9.844H118.804V28H114.554V9.844ZM116.696 6.852C115.925 6.852 115.279 6.614 114.758 6.138C114.236 5.63933 113.976 5.02733 113.976 4.302C113.976 3.57667 114.236 2.976 114.758 2.5C115.279 2.00133 115.925 1.752 116.696 1.752C117.466 1.752 118.112 1.99 118.634 2.466C119.155 2.91933 119.416 3.49733 119.416 4.2C119.416 4.948 119.155 5.58266 118.634 6.104C118.135 6.60267 117.489 6.852 116.696 6.852ZM132.984 18.038L129.21 21.914V28H124.79V4.2H129.21V16.406L140.974 4.2H145.938L135.942 14.842L146.55 28H141.382L132.984 18.038ZM165.422 19.024C165.422 19.3187 165.4 19.738 165.354 20.282H151.108C151.358 21.6193 152.004 22.6847 153.046 23.478C154.112 24.2487 155.426 24.634 156.99 24.634C158.985 24.634 160.628 23.9767 161.92 22.662L164.198 25.28C163.382 26.2547 162.351 26.9913 161.104 27.49C159.858 27.9887 158.452 28.238 156.888 28.238C154.894 28.238 153.137 27.8413 151.618 27.048C150.1 26.2547 148.921 25.1553 148.082 23.75C147.266 22.322 146.858 20.7127 146.858 18.922C146.858 17.154 147.255 15.5673 148.048 14.162C148.864 12.734 149.986 11.6233 151.414 10.83C152.842 10.0367 154.452 9.64 156.242 9.64C158.01 9.64 159.586 10.0367 160.968 10.83C162.374 11.6007 163.462 12.7 164.232 14.128C165.026 15.5333 165.422 17.1653 165.422 19.024ZM156.242 13.04C154.882 13.04 153.726 13.448 152.774 14.264C151.845 15.0573 151.278 16.1227 151.074 17.46H161.376C161.195 16.1453 160.64 15.08 159.71 14.264C158.781 13.448 157.625 13.04 156.242 13.04ZM177.665 28.238C175.829 28.238 174.174 27.8413 172.701 27.048C171.227 26.2547 170.071 25.1553 169.233 23.75C168.417 22.322 168.009 20.7127 168.009 18.922C168.009 17.1313 168.417 15.5333 169.233 14.128C170.071 12.7227 171.227 11.6233 172.701 10.83C174.174 10.0367 175.829 9.64 177.665 9.64C179.523 9.64 181.189 10.0367 182.663 10.83C184.136 11.6233 185.281 12.7227 186.097 14.128C186.935 15.5333 187.355 17.1313 187.355 18.922C187.355 20.7127 186.935 22.322 186.097 23.75C185.281 25.1553 184.136 26.2547 182.663 27.048C181.189 27.8413 179.523 28.238 177.665 28.238ZM177.665 24.6C179.229 24.6 180.521 24.0787 181.541 23.036C182.561 21.9933 183.071 20.622 183.071 18.922C183.071 17.222 182.561 15.8507 181.541 14.808C180.521 13.7653 179.229 13.244 177.665 13.244C176.101 13.244 174.809 13.7653 173.789 14.808C172.791 15.8507 172.293 17.222 172.293 18.922C172.293 20.622 172.791 21.9933 173.789 23.036C174.809 24.0787 176.101 24.6 177.665 24.6ZM192.447 28.238C191.676 28.238 191.019 27.9773 190.475 27.456C189.931 26.912 189.659 26.232 189.659 25.416C189.659 24.5773 189.919 23.8973 190.441 23.376C190.985 22.8547 191.653 22.594 192.447 22.594C193.24 22.594 193.897 22.8547 194.419 23.376C194.963 23.8973 195.235 24.5773 195.235 25.416C195.235 26.232 194.963 26.912 194.419 27.456C193.875 27.9773 193.217 28.238 192.447 28.238ZM207.386 28.238C205.504 28.238 203.816 27.8413 202.32 27.048C200.824 26.2547 199.656 25.1553 198.818 23.75C197.979 22.322 197.56 20.7127 197.56 18.922C197.56 17.1313 197.979 15.5333 198.818 14.128C199.656 12.7227 200.812 11.6233 202.286 10.83C203.782 10.0367 205.482 9.64 207.386 9.64C209.176 9.64 210.74 10.0027 212.078 10.728C213.438 11.4533 214.458 12.496 215.138 13.856L211.874 15.76C211.352 14.9213 210.695 14.298 209.902 13.89C209.131 13.4593 208.281 13.244 207.352 13.244C205.765 13.244 204.45 13.7653 203.408 14.808C202.365 15.828 201.844 17.1993 201.844 18.922C201.844 20.6447 202.354 22.0273 203.374 23.07C204.416 24.09 205.742 24.6 207.352 24.6C208.281 24.6 209.131 24.396 209.902 23.988C210.695 23.5573 211.352 22.9227 211.874 22.084L215.138 23.988C214.435 25.348 213.404 26.402 212.044 27.15C210.706 27.8753 209.154 28.238 207.386 28.238ZM226.706 28.238C224.87 28.238 223.215 27.8413 221.742 27.048C220.268 26.2547 219.112 25.1553 218.274 23.75C217.458 22.322 217.05 20.7127 217.05 18.922C217.05 17.1313 217.458 15.5333 218.274 14.128C219.112 12.7227 220.268 11.6233 221.742 10.83C223.215 10.0367 224.87 9.64 226.706 9.64C228.564 9.64 230.23 10.0367 231.704 10.83C233.177 11.6233 234.322 12.7227 235.138 14.128C235.976 15.5333 236.396 17.1313 236.396 18.922C236.396 20.7127 235.976 22.322 235.138 23.75C234.322 25.1553 233.177 26.2547 231.704 27.048C230.23 27.8413 228.564 28.238 226.706 28.238ZM226.706 24.6C228.27 24.6 229.562 24.0787 230.582 23.036C231.602 21.9933 232.112 20.622 232.112 18.922C232.112 17.222 231.602 15.8507 230.582 14.808C229.562 13.7653 228.27 13.244 226.706 13.244C225.142 13.244 223.85 13.7653 222.83 14.808C221.832 15.8507 221.334 17.222 221.334 18.922C221.334 20.622 221.832 21.9933 222.83 23.036C223.85 24.0787 225.142 24.6 226.706 24.6ZM263.376 9.64C265.665 9.64 267.479 10.3087 268.816 11.646C270.153 12.9607 270.822 14.944 270.822 17.596V28H266.572V18.14C266.572 16.5533 266.221 15.3633 265.518 14.57C264.815 13.754 263.807 13.346 262.492 13.346C261.064 13.346 259.919 13.822 259.058 14.774C258.197 15.7033 257.766 17.0407 257.766 18.786V28H253.516V18.14C253.516 16.5533 253.165 15.3633 252.462 14.57C251.759 13.754 250.751 13.346 249.436 13.346C247.985 13.346 246.829 13.8107 245.968 14.74C245.129 15.6693 244.71 17.018 244.71 18.786V28H240.46V9.844H244.506V12.156C245.186 11.34 246.036 10.7167 247.056 10.286C248.076 9.85533 249.209 9.64 250.456 9.64C251.816 9.64 253.017 9.90067 254.06 10.422C255.125 10.9207 255.964 11.6687 256.576 12.666C257.324 11.714 258.287 10.9773 259.466 10.456C260.645 9.912 261.948 9.64 263.376 9.64Z" fill="white"/>
</svg>
