<svg width="50" height="50" viewBox="0 0 50 50" fill="none" xmlns="http://www.w3.org/2000/svg">
<path d="M45.9386 12.9105C49.1679 18.5035 50.0252 25.0198 48.3543 31.2579C46.6819 37.4959 42.6826 42.7094 37.0896 45.9388C31.4965 49.1681 24.9803 50.0254 18.7422 48.3544C12.5042 46.6822 7.29052 42.6828 4.06117 37.0897C0.831827 31.4967 -0.0254234 24.9805 1.64552 18.7424C3.31783 12.5043 7.31868 7.29081 12.9102 4.06146C16.6371 1.91001 20.7713 0.8125 24.9604 0.8125C27.0599 0.8125 29.1749 1.08798 31.2575 1.64581C37.4956 3.31812 42.7092 7.3175 45.9386 12.9105ZM41.3391 14.1514C41.9532 13.6764 42.0657 12.7926 41.5906 12.1798C38.2489 7.8614 33.2236 4.9609 27.8062 4.2203C27.0375 4.11494 26.3278 4.65314 26.2239 5.42317C26.1185 6.19183 26.6567 6.90016 27.4254 7.00552C32.1204 7.64635 36.4726 10.1604 39.3675 13.8998C39.6443 14.2582 40.0603 14.4451 40.4805 14.4451C40.7812 14.4451 41.0833 14.3495 41.3391 14.1514ZM39.4195 25.0002C39.4195 23.9364 38.87 22.985 37.9496 22.4538L20.5972 12.4342C19.6753 11.903 18.5764 11.903 17.656 12.4342C16.7356 12.9668 16.1847 13.9182 16.1847 14.982V35.0184C16.1847 36.0822 16.7356 37.0336 17.656 37.5662C18.1155 37.8318 18.6215 37.964 19.1259 37.964C19.6318 37.964 20.1363 37.8319 20.5972 37.5662L37.9496 27.5466C38.87 27.0154 39.4195 26.0639 39.4195 25.0002Z" fill="#A6DF58"/>
</svg>
