<svg width="40" height="40" viewBox="0 0 40 40" fill="none" xmlns="http://www.w3.org/2000/svg">
<circle cx="20" cy="20" r="20" fill="#C51D23"/>
<path d="M30 17.0425C30 14.81 28.0508 13 25.6466 13H14.354C11.9498 13 10 14.81 10 17.0425V21.957C10 24.1895 11.9498 26 14.354 26H25.6466C28.0508 26 30 24.1895 30 21.957V17.0425ZM22.8755 19.7475L18.3718 22.0416C18.176 22.1399 18.0002 22.0081 18.0002 21.8009V17.093C18.0002 16.8837 18.1819 16.7529 18.3778 16.8562L22.9122 19.2706C23.1116 19.3767 23.0785 19.6453 22.8755 19.7475Z" fill="white"/>
</svg>
